<svg id="Group_18355" data-name="Group 18355" xmlns="http://www.w3.org/2000/svg" xmlns:xlink="http://www.w3.org/1999/xlink" width="295.951" height="37.799" viewBox="0 0 295.951 37.799">
  <defs>
    <clipPath id="clip-path">
      <rect id="Rectangle_320" data-name="Rectangle 320" width="295.951" height="37.799" fill="none"/>
    </clipPath>
  </defs>
  <g id="Group_3370" data-name="Group 3370" transform="translate(0 0)" clip-path="url(#clip-path)">
    <path id="Path_5620" data-name="Path 5620" d="M1.841,6.737A3.733,3.733,0,0,1,.5,5.424a3.4,3.4,0,0,1-.5-1.8A3.464,3.464,0,0,1,.5,1.813,3.7,3.7,0,0,1,1.841.487,3.547,3.547,0,0,1,3.654,0,3.554,3.554,0,0,1,5.467.487,3.6,3.6,0,0,1,6.792,1.813a3.539,3.539,0,0,1,.486,1.813,3.474,3.474,0,0,1-.486,1.8A3.625,3.625,0,0,1,5.467,6.737a3.616,3.616,0,0,1-3.626,0M6.373,14.5a.706.706,0,0,1,.2.542V37.068a.706.706,0,0,1-.2.541.782.782,0,0,1-.555.19H1.434a.646.646,0,0,1-.731-.73V15.044a.646.646,0,0,1,.731-.731H5.817a.784.784,0,0,1,.555.189" transform="translate(0 0)" fill="#231f20"/>
    <path id="Path_5621" data-name="Path 5621" d="M43.357,27.746a8.416,8.416,0,0,1,3.274,3.707,13.062,13.062,0,0,1,1.136,5.628V49.851a.752.752,0,0,1-.2.555.788.788,0,0,1-.582.2H42.653a.788.788,0,0,1-.582-.2.753.753,0,0,1-.2-.555v-12.8a4.83,4.83,0,0,0-.69-2.53,4.9,4.9,0,0,0-1.867-1.8,5.2,5.2,0,0,0-2.557-.649,5.481,5.481,0,0,0-2.706.69,5.178,5.178,0,0,0-1.975,1.921,5.275,5.275,0,0,0-.731,2.746V49.878q0,.786-.757.785H26.257a.682.682,0,0,1-.758-.785V27.935a.75.75,0,0,1,.2-.554.785.785,0,0,1,.581-.2H29.72c.433,0,.686.162.757.487l.461,2.435a9.234,9.234,0,0,1,3.233-2.679,9.116,9.116,0,0,1,4.153-.974,9.5,9.5,0,0,1,5.033,1.3" transform="translate(-12.403 -12.864)" fill="#231f20"/>
    <path id="Path_5622" data-name="Path 5622" d="M75.549,19.759a.646.646,0,0,1,.73-.731h2.652V12.345a.844.844,0,0,1,.622-.865l4.411-1.732a1.466,1.466,0,0,1,.3-.054.5.5,0,0,1,.419.19.809.809,0,0,1,.149.514v8.631h5.6a.646.646,0,0,1,.73.731V23.9a.645.645,0,0,1-.73.73h-5.6V41.783q0,.731-.7.73H79.689a.659.659,0,0,1-.731-.73V24.628H76.279a.645.645,0,0,1-.73-.73Z" transform="translate(-36.748 -4.715)" fill="#231f20"/>
    <path id="Path_5623" data-name="Path 5623" d="M126.193,26.86a11.507,11.507,0,0,1,4.233,4.532,12.735,12.735,0,0,1,1.448,6.237,2.3,2.3,0,0,1-.758,1.773,2.555,2.555,0,0,1-1.732.635H114.017a7.163,7.163,0,0,0,2.448,3.369,6.229,6.229,0,0,0,3.883,1.312,8.864,8.864,0,0,0,4.979-1.84,1.12,1.12,0,0,1,.514-.162.683.683,0,0,1,.541.325l.947,1.326q.649.867,1.055,1.461a1.048,1.048,0,0,1,.162.541.743.743,0,0,1-.271.569,12.018,12.018,0,0,1-8.009,3.112,12.333,12.333,0,0,1-6.318-1.677,12.6,12.6,0,0,1-4.573-4.533,12.019,12.019,0,0,1-1.691-6.236,12.291,12.291,0,0,1,12.392-12.419,11.458,11.458,0,0,1,6.115,1.677M116.019,32.2a5.856,5.856,0,0,0-2.219,3.4h11.986a6.113,6.113,0,0,0-2-3.4,5.62,5.62,0,0,0-3.761-1.285,6.471,6.471,0,0,0-4,1.285" transform="translate(-52.38 -12.249)" fill="#231f20"/>
    <path id="Path_5624" data-name="Path 5624" d="M182.917,29.153a.873.873,0,0,1-.162.487l-2.029,3.138a.631.631,0,0,1-.6.351.514.514,0,0,1-.38-.135l-.189-.162a5.226,5.226,0,0,0-1.758-.893,6.807,6.807,0,0,0-1.948-.3,5.974,5.974,0,0,0-2.99.771,5.818,5.818,0,0,0-2.165,2.1,5.511,5.511,0,0,0-.8,2.9V49.878a.682.682,0,0,1-.758.785h-4.329q-.757,0-.758-.785V27.935a.747.747,0,0,1,.2-.554.785.785,0,0,1,.581-.2h3.436q.649,0,.758.487l.486,2.651a9.057,9.057,0,0,1,3.18-2.828,8.422,8.422,0,0,1,4.045-1.041,9.509,9.509,0,0,1,3.288.568,7.05,7.05,0,0,1,2.611,1.623.6.6,0,0,1,.271.514" transform="translate(-79.801 -12.864)" fill="#231f20"/>
    <path id="Path_5625" data-name="Path 5625" d="M287.227,42.336a.7.7,0,0,1,.6.3l2.191,3.22a.722.722,0,0,1,.19.487.779.779,0,0,1-.352.622,13.021,13.021,0,0,1-3.8,2.273,12.071,12.071,0,0,1-4.4.812,12.28,12.28,0,0,1-6.291-1.677,12.589,12.589,0,0,1-4.572-4.532,12.39,12.39,0,0,1-.014-12.474,12.517,12.517,0,0,1,10.85-6.182,12.763,12.763,0,0,1,8.279,3.031.77.77,0,0,1,.3.568.942.942,0,0,1-.19.541l-2.164,3.3a.712.712,0,0,1-.6.352.872.872,0,0,1-.487-.163,7.929,7.929,0,0,0-5.06-1.921,6.437,6.437,0,0,0-3.328.893,6.527,6.527,0,0,0-2.395,2.435A6.82,6.82,0,0,0,276,40.943a6.8,6.8,0,0,0,2.408,2.475,6.294,6.294,0,0,0,3.328.92,7.57,7.57,0,0,0,5.005-1.866,1.1,1.1,0,0,1,.487-.136" transform="translate(-130.895 -12.249)" fill="#231f20"/>
    <path id="Path_5626" data-name="Path 5626" d="M314.987,19.759a.646.646,0,0,1,.731-.731h2.651V12.345a.844.844,0,0,1,.624-.865l4.41-1.732a1.475,1.475,0,0,1,.3-.054.5.5,0,0,1,.42.19.809.809,0,0,1,.149.514v8.631h5.6a.646.646,0,0,1,.731.731V23.9a.646.646,0,0,1-.731.73h-5.6V41.783q0,.731-.7.73h-4.437a.66.66,0,0,1-.731-.73V24.628h-2.679a.645.645,0,0,1-.731-.73Z" transform="translate(-153.215 -4.715)" fill="#231f20"/>
    <path id="Path_5627" data-name="Path 5627" d="M381.929,30.91a1.552,1.552,0,0,0-.771,1.367,1.418,1.418,0,0,0,.338.96,3.311,3.311,0,0,0,1.258.758,24.007,24.007,0,0,0,2.733.825,20.593,20.593,0,0,1,4.694,1.691,7.432,7.432,0,0,1,2.842,2.53,6.985,6.985,0,0,1,.988,3.842,6.026,6.026,0,0,1-2.571,5.25,11.975,11.975,0,0,1-7.008,1.812,16.765,16.765,0,0,1-5.3-.852,24.587,24.587,0,0,1-4.383-1.881.87.87,0,0,1-.541-.758.981.981,0,0,1,.189-.568l1.732-3.057a.874.874,0,0,1,.758-.487,1.341,1.341,0,0,1,.6.162,15.354,15.354,0,0,0,6.953,1.975,7.749,7.749,0,0,0,2.949-.433,1.476,1.476,0,0,0,1-1.434,1.8,1.8,0,0,0-1.029-1.582,13.134,13.134,0,0,0-3.274-1.177,22.986,22.986,0,0,1-4.735-1.651,6.863,6.863,0,0,1-2.773-2.435,7.12,7.12,0,0,1-.96-3.869,6.283,6.283,0,0,1,1-3.423,7.11,7.11,0,0,1,2.922-2.544,10.131,10.131,0,0,1,4.572-.96,15.839,15.839,0,0,1,4.64.7,17.842,17.842,0,0,1,3.91,1.651.944.944,0,0,1,.6.811,1.072,1.072,0,0,1-.189.568l-1.759,2.95a.924.924,0,0,1-.784.541,1.472,1.472,0,0,1-.3-.054,17.277,17.277,0,0,0-2.977-1.218,10.576,10.576,0,0,0-3.138-.514,3.992,3.992,0,0,0-2.178.5" transform="translate(-182.02 -12.146)" fill="#231f20"/>
    <path id="Path_5628" data-name="Path 5628" d="M444.256,27.231V49.174a.749.749,0,0,1-.2.555.787.787,0,0,1-.582.2h-3.464a.644.644,0,0,1-.73-.514l-.46-2.408a9.241,9.241,0,0,1-3.234,2.679,9.109,9.109,0,0,1-4.153.974,9.5,9.5,0,0,1-5.033-1.3,8.435,8.435,0,0,1-3.274-3.707A13.14,13.14,0,0,1,421.989,40V27.257a.755.755,0,0,1,.216-.581.8.8,0,0,1,.568-.2H427.1a.708.708,0,0,1,.784.785v12.8a4.75,4.75,0,0,0,.69,2.516,5.038,5.038,0,0,0,1.867,1.8,5.118,5.118,0,0,0,2.556.663,5.416,5.416,0,0,0,2.692-.69,5.2,5.2,0,0,0,1.962-1.922,5.331,5.331,0,0,0,.73-2.773V27.231a.682.682,0,0,1,.758-.785H443.5a.682.682,0,0,1,.758.785" transform="translate(-205.263 -12.864)" fill="#231f20"/>
    <path id="Path_5629" data-name="Path 5629" d="M478.566,6.737a3.741,3.741,0,0,1-1.34-1.312,3.41,3.41,0,0,1-.5-1.8,3.473,3.473,0,0,1,.5-1.813,3.71,3.71,0,0,1,1.34-1.326,3.619,3.619,0,0,1,3.626,0,3.6,3.6,0,0,1,1.326,1.326,3.54,3.54,0,0,1,.487,1.813,3.475,3.475,0,0,1-.487,1.8,3.626,3.626,0,0,1-1.326,1.312,3.616,3.616,0,0,1-3.626,0M483.1,14.5a.7.7,0,0,1,.2.542V37.068a.7.7,0,0,1-.2.541.781.781,0,0,1-.554.19H478.16a.646.646,0,0,1-.73-.73V15.044a.646.646,0,0,1,.73-.731h4.384a.783.783,0,0,1,.554.189" transform="translate(-231.888 0)" fill="#231f20"/>
    <path id="Path_5630" data-name="Path 5630" d="M497.009,19.759a.646.646,0,0,1,.73-.731h2.652V12.345a.844.844,0,0,1,.622-.865l4.411-1.732a1.471,1.471,0,0,1,.3-.054.5.5,0,0,1,.419.19.808.808,0,0,1,.149.514v8.631h5.6a.646.646,0,0,1,.731.731V23.9a.645.645,0,0,1-.731.73h-5.6V41.783q0,.731-.7.73h-4.437a.66.66,0,0,1-.731-.73V24.628h-2.679a.645.645,0,0,1-.73-.73Z" transform="translate(-241.754 -4.715)" fill="#231f20"/>
    <path id="Path_5631" data-name="Path 5631" d="M547.653,26.86a11.5,11.5,0,0,1,4.234,4.532,12.737,12.737,0,0,1,1.448,6.237,2.3,2.3,0,0,1-.758,1.773,2.555,2.555,0,0,1-1.732.635H535.477a7.171,7.171,0,0,0,2.449,3.369,6.228,6.228,0,0,0,3.883,1.312,8.868,8.868,0,0,0,4.979-1.84,1.114,1.114,0,0,1,.513-.162.682.682,0,0,1,.541.325l.948,1.326q.649.867,1.055,1.461a1.048,1.048,0,0,1,.162.541.747.747,0,0,1-.271.569,12.02,12.02,0,0,1-8.009,3.112,12.336,12.336,0,0,1-6.318-1.677,12.6,12.6,0,0,1-4.573-4.533,12.024,12.024,0,0,1-1.69-6.236,12.291,12.291,0,0,1,12.392-12.419,11.456,11.456,0,0,1,6.114,1.677M537.48,32.2a5.855,5.855,0,0,0-2.219,3.4h11.986a6.11,6.11,0,0,0-2-3.4,5.617,5.617,0,0,0-3.761-1.285,6.471,6.471,0,0,0-4,1.285" transform="translate(-257.387 -12.249)" fill="#231f20"/>
    <path id="Path_5632" data-name="Path 5632" d="M231.324,42.513H214.351v-8.4l5.251.419-7.227-11.646-7.224,11.646,5.25-.419v8.4H193.428l18.947-32.82Z" transform="translate(-94.087 -4.715)" fill="#ff8000"/>
  </g>
</svg>
