<svg xmlns="http://www.w3.org/2000/svg" xmlns:xlink="http://www.w3.org/1999/xlink" width="339.043" height="43.303" viewBox="0 0 339.043 43.303">
  <defs>
    <clipPath id="clip-path">
      <rect id="Rectangle_320" data-name="Rectangle 320" width="339.043" height="43.303" fill="none"/>
    </clipPath>
  </defs>
  <g id="Group_18354" data-name="Group 18354" transform="translate(0 0)">
    <g id="Group_3370" data-name="Group 3370" transform="translate(0 0)" clip-path="url(#clip-path)">
      <path id="Path_5620" data-name="Path 5620" d="M2.109,7.718a4.276,4.276,0,0,1-1.535-1.5A3.9,3.9,0,0,1,0,4.154,3.969,3.969,0,0,1,.574,2.077,4.24,4.24,0,0,1,2.109.558,4.063,4.063,0,0,1,4.186,0,4.071,4.071,0,0,1,6.263.558,4.12,4.12,0,0,1,7.781,2.077a4.054,4.054,0,0,1,.557,2.077,3.98,3.98,0,0,1-.557,2.06,4.153,4.153,0,0,1-1.519,1.5,4.142,4.142,0,0,1-4.154,0m5.192,8.9a.809.809,0,0,1,.232.621V42.466a.809.809,0,0,1-.232.62.9.9,0,0,1-.636.217H1.643a.74.74,0,0,1-.837-.837V17.234a.74.74,0,0,1,.837-.837H6.664a.9.9,0,0,1,.636.217" transform="translate(0 0)" fill="#fff"/>
      <path id="Path_5621" data-name="Path 5621" d="M45.957,27.935a9.641,9.641,0,0,1,3.751,4.246,14.964,14.964,0,0,1,1.3,6.448v14.63a.862.862,0,0,1-.232.636.9.9,0,0,1-.667.232h-4.96a.9.9,0,0,1-.667-.232.862.862,0,0,1-.232-.636V38.6a5.533,5.533,0,0,0-.79-2.9,5.612,5.612,0,0,0-2.139-2.062,5.962,5.962,0,0,0-2.929-.743,6.279,6.279,0,0,0-3.1.79,5.932,5.932,0,0,0-2.263,2.2,6.044,6.044,0,0,0-.837,3.146V53.29q0,.9-.867.9H26.367a.781.781,0,0,1-.868-.9V28.151a.859.859,0,0,1,.232-.635.9.9,0,0,1,.666-.233h3.937c.5,0,.786.186.867.558l.528,2.79a10.578,10.578,0,0,1,3.7-3.069,10.443,10.443,0,0,1,4.758-1.116,10.883,10.883,0,0,1,5.765,1.488" transform="translate(-10.496 -10.886)" fill="#fff"/>
      <path id="Path_5622" data-name="Path 5622" d="M75.549,21.224a.74.74,0,0,1,.837-.837h3.038V12.731a.967.967,0,0,1,.713-.991l5.053-1.984a1.679,1.679,0,0,1,.341-.062.576.576,0,0,1,.48.218.927.927,0,0,1,.171.589v9.887H92.6a.74.74,0,0,1,.837.837v4.743a.739.739,0,0,1-.837.836H86.181V46.456q0,.838-.805.837H80.292a.755.755,0,0,1-.837-.837V26.8H76.386a.739.739,0,0,1-.837-.836Z" transform="translate(-31.099 -3.99)" fill="#fff"/>
      <path id="Path_5623" data-name="Path 5623" d="M128.888,27.1a13.182,13.182,0,0,1,4.85,5.192,14.59,14.59,0,0,1,1.659,7.145,2.636,2.636,0,0,1-.868,2.031,2.927,2.927,0,0,1-1.984.728H114.939a8.206,8.206,0,0,0,2.8,3.859,7.136,7.136,0,0,0,4.449,1.5,10.154,10.154,0,0,0,5.7-2.108,1.283,1.283,0,0,1,.588-.186.782.782,0,0,1,.62.372l1.085,1.519q.744.993,1.209,1.673a1.2,1.2,0,0,1,.186.62.851.851,0,0,1-.311.651,13.768,13.768,0,0,1-9.175,3.565,14.128,14.128,0,0,1-7.237-1.922,14.431,14.431,0,0,1-5.239-5.193,13.769,13.769,0,0,1-1.937-7.144,14.08,14.08,0,0,1,14.2-14.227,13.126,13.126,0,0,1,7.006,1.921m-11.655,6.122a6.708,6.708,0,0,0-2.542,3.89h13.732a7,7,0,0,0-2.293-3.89,6.438,6.438,0,0,0-4.309-1.473,7.413,7.413,0,0,0-4.587,1.473" transform="translate(-44.328 -10.366)" fill="#fff"/>
      <path id="Path_5624" data-name="Path 5624" d="M185.663,29.546a1,1,0,0,1-.186.558l-2.325,3.6a.723.723,0,0,1-.682.4.589.589,0,0,1-.435-.155l-.217-.186a5.987,5.987,0,0,0-2.015-1.023,7.8,7.8,0,0,0-2.232-.341,6.843,6.843,0,0,0-3.425.884,6.665,6.665,0,0,0-2.48,2.4A6.314,6.314,0,0,0,170.754,39V53.29a.782.782,0,0,1-.868.9h-4.959q-.868,0-.868-.9V28.151a.856.856,0,0,1,.232-.635.9.9,0,0,1,.666-.233h3.937q.744,0,.868.558l.557,3.037a10.376,10.376,0,0,1,3.643-3.24,9.648,9.648,0,0,1,4.634-1.193,10.894,10.894,0,0,1,3.767.651,8.076,8.076,0,0,1,2.991,1.86.683.683,0,0,1,.31.589" transform="translate(-67.533 -10.886)" fill="#fff"/>
      <path id="Path_5625" data-name="Path 5625" d="M289.867,44.834a.8.8,0,0,1,.682.341l2.51,3.689a.827.827,0,0,1,.218.558.893.893,0,0,1-.4.713,14.917,14.917,0,0,1-4.354,2.6,13.829,13.829,0,0,1-5.038.93,14.068,14.068,0,0,1-7.207-1.922,14.421,14.421,0,0,1-5.238-5.192,14.194,14.194,0,0,1-.016-14.29,14.339,14.339,0,0,1,12.43-7.083,14.621,14.621,0,0,1,9.485,3.472.883.883,0,0,1,.341.651,1.08,1.08,0,0,1-.218.62l-2.479,3.781a.816.816,0,0,1-.682.4,1,1,0,0,1-.558-.187,9.083,9.083,0,0,0-5.8-2.2,7.375,7.375,0,0,0-3.813,1.023,7.477,7.477,0,0,0-2.744,2.79,7.813,7.813,0,0,0,.016,7.7,7.791,7.791,0,0,0,2.759,2.836,7.21,7.21,0,0,0,3.813,1.054,8.672,8.672,0,0,0,5.734-2.138,1.259,1.259,0,0,1,.558-.155" transform="translate(-110.771 -10.366)" fill="#fff"/>
      <path id="Path_5626" data-name="Path 5626" d="M314.987,21.224a.74.74,0,0,1,.837-.837h3.037V12.731a.967.967,0,0,1,.714-.991l5.052-1.984a1.69,1.69,0,0,1,.341-.062.577.577,0,0,1,.481.218.927.927,0,0,1,.171.589v9.887h6.416a.74.74,0,0,1,.838.837v4.743a.74.74,0,0,1-.838.836H325.62V46.456q0,.838-.807.837H319.73a.756.756,0,0,1-.837-.837V26.8h-3.069a.739.739,0,0,1-.837-.836Z" transform="translate(-129.661 -3.99)" fill="#fff"/>
      <path id="Path_5627" data-name="Path 5627" d="M383.054,31.775a1.778,1.778,0,0,0-.884,1.566,1.624,1.624,0,0,0,.388,1.1,3.794,3.794,0,0,0,1.441.868,27.5,27.5,0,0,0,3.131.945,23.592,23.592,0,0,1,5.378,1.937,8.514,8.514,0,0,1,3.255,2.9,8,8,0,0,1,1.131,4.4,6.9,6.9,0,0,1-2.945,6.014,13.719,13.719,0,0,1-8.028,2.076,19.206,19.206,0,0,1-6.075-.976,28.167,28.167,0,0,1-5.021-2.155,1,1,0,0,1-.62-.868,1.123,1.123,0,0,1,.217-.651l1.984-3.5a1,1,0,0,1,.868-.558,1.537,1.537,0,0,1,.682.186,17.589,17.589,0,0,0,7.966,2.263,8.878,8.878,0,0,0,3.378-.5,1.692,1.692,0,0,0,1.147-1.643,2.065,2.065,0,0,0-1.178-1.813,15.047,15.047,0,0,0-3.75-1.349,26.334,26.334,0,0,1-5.425-1.891,7.863,7.863,0,0,1-3.177-2.789,8.157,8.157,0,0,1-1.1-4.433,7.2,7.2,0,0,1,1.147-3.921,8.146,8.146,0,0,1,3.348-2.914,11.606,11.606,0,0,1,5.238-1.1,18.145,18.145,0,0,1,5.316.806,20.44,20.44,0,0,1,4.479,1.891,1.081,1.081,0,0,1,.682.93,1.228,1.228,0,0,1-.217.651l-2.015,3.38a1.059,1.059,0,0,1-.9.62,1.686,1.686,0,0,1-.341-.062,19.793,19.793,0,0,0-3.41-1.4,12.116,12.116,0,0,0-3.6-.588,4.573,4.573,0,0,0-2.5.573" transform="translate(-154.037 -10.279)" fill="#fff"/>
      <path id="Path_5628" data-name="Path 5628" d="M447.5,27.345V52.483a.859.859,0,0,1-.232.635.9.9,0,0,1-.667.232h-3.968a.738.738,0,0,1-.836-.589L441.269,50a10.586,10.586,0,0,1-3.7,3.069,10.436,10.436,0,0,1-4.758,1.116,10.884,10.884,0,0,1-5.765-1.487,9.663,9.663,0,0,1-3.751-4.247,15.053,15.053,0,0,1-1.3-6.478v-14.6a.865.865,0,0,1,.247-.666.913.913,0,0,1,.651-.233h4.96a.812.812,0,0,1,.9.9V42.038a5.442,5.442,0,0,0,.791,2.882,5.771,5.771,0,0,0,2.139,2.062,5.864,5.864,0,0,0,2.928.76,6.2,6.2,0,0,0,3.084-.79,5.957,5.957,0,0,0,2.248-2.2,6.107,6.107,0,0,0,.837-3.177V27.345a.781.781,0,0,1,.868-.9h4.99a.781.781,0,0,1,.868.9" transform="translate(-173.707 -10.886)" fill="#fff"/>
      <path id="Path_5629" data-name="Path 5629" d="M478.834,7.718a4.286,4.286,0,0,1-1.535-1.5,3.907,3.907,0,0,1-.573-2.06,3.979,3.979,0,0,1,.573-2.077A4.25,4.25,0,0,1,478.834.558a4.146,4.146,0,0,1,4.154,0,4.121,4.121,0,0,1,1.519,1.519,4.055,4.055,0,0,1,.558,2.077,3.981,3.981,0,0,1-.558,2.06,4.154,4.154,0,0,1-1.519,1.5,4.142,4.142,0,0,1-4.154,0m5.192,8.9a.805.805,0,0,1,.232.621V42.466a.8.8,0,0,1-.232.62.9.9,0,0,1-.635.217h-5.022a.74.74,0,0,1-.837-.837V17.234a.74.74,0,0,1,.837-.837h5.022a.9.9,0,0,1,.635.217" transform="translate(-196.239 0)" fill="#fff"/>
      <path id="Path_5630" data-name="Path 5630" d="M497.009,21.224a.74.74,0,0,1,.837-.837h3.038V12.731a.966.966,0,0,1,.713-.991l5.053-1.984a1.685,1.685,0,0,1,.341-.062.575.575,0,0,1,.48.218.926.926,0,0,1,.171.589v9.887h6.416a.74.74,0,0,1,.837.837v4.743a.739.739,0,0,1-.837.836h-6.416V46.456q0,.838-.805.837h-5.083a.756.756,0,0,1-.837-.837V26.8h-3.069a.739.739,0,0,1-.837-.836Z" transform="translate(-204.588 -3.99)" fill="#fff"/>
      <path id="Path_5631" data-name="Path 5631" d="M550.348,27.1A13.177,13.177,0,0,1,555.2,32.3a14.591,14.591,0,0,1,1.659,7.145,2.634,2.634,0,0,1-.868,2.031,2.927,2.927,0,0,1-1.984.728H536.4a8.215,8.215,0,0,0,2.806,3.859,7.135,7.135,0,0,0,4.448,1.5,10.159,10.159,0,0,0,5.7-2.108,1.277,1.277,0,0,1,.588-.186.781.781,0,0,1,.62.372l1.086,1.519q.743.993,1.209,1.673a1.2,1.2,0,0,1,.186.62.855.855,0,0,1-.311.651,13.77,13.77,0,0,1-9.175,3.565,14.132,14.132,0,0,1-7.238-1.922,14.431,14.431,0,0,1-5.239-5.193,13.774,13.774,0,0,1-1.936-7.144,14.08,14.08,0,0,1,14.2-14.227,13.124,13.124,0,0,1,7,1.921m-11.654,6.122a6.708,6.708,0,0,0-2.542,3.89h13.731a7,7,0,0,0-2.293-3.89,6.435,6.435,0,0,0-4.309-1.473,7.413,7.413,0,0,0-4.588,1.473" transform="translate(-217.817 -10.366)" fill="#fff"/>
      <path id="Path_5632" data-name="Path 5632" d="M236.842,47.292H217.4V37.67l6.015.48-8.279-13.342L206.858,38.15l6.015-.48v9.622H193.428l21.705-37.6Z" transform="translate(-79.622 -3.99)" fill="#ff8000"/>
    </g>
  </g>
</svg>
