<svg xmlns="http://www.w3.org/2000/svg" width="27.918" height="27.918" viewBox="0 0 27.918 27.918">
  <g id="Group_166" data-name="Group 166" transform="translate(0)">
    <path id="Path_344" data-name="Path 344" d="M398.143,728.047a1.641,1.641,0,1,0,1.642,1.641A1.641,1.641,0,0,0,398.143,728.047Zm-7.3,2.1a6.894,6.894,0,1,0,6.894,6.894A6.9,6.9,0,0,0,390.846,730.152Zm0,11.31a4.416,4.416,0,1,1,4.417-4.417A4.421,4.421,0,0,1,390.846,741.462Zm13.911-10.146a8.409,8.409,0,0,0-8.409-8.409h-11.1a8.41,8.41,0,0,0-8.41,8.409v11.1a8.409,8.409,0,0,0,8.41,8.408h11.1a8.408,8.408,0,0,0,8.409-8.408Zm-2.634,11.1a5.775,5.775,0,0,1-5.776,5.775h-11.1a5.775,5.775,0,0,1-5.776-5.775v-11.1a5.776,5.776,0,0,1,5.776-5.776h11.1a5.776,5.776,0,0,1,5.776,5.776Z" transform="translate(-376.84 -722.907)" fill="#181818"/>
  </g>
</svg>
